<!-- Shape: Shape -->
<svg xmlns:xlink="http://www.w3.org/1999/xlink" fill="none" width="20" xmlns="http://www.w3.org/2000/svg" style="-webkit-print-color-adjust:exact" id="screenshot-89972644-4287-8052-8004-24be27f3eb79" version="1.1" viewBox="604.667 103.667 20 20" height="20">
  <g id="shape-89972644-4287-8052-8004-24be27f3eb79">
    <g class="fills" id="fills-89972644-4287-8052-8004-24be27f3eb79">
      <path fill-rule="evenodd" rx="0" ry="0" style="fill:#ffffff" d="M614.667,103.667C620.190,103.667,624.667,108.144,624.667,113.667C624.667,119.189,620.190,123.667,614.667,123.667C609.144,123.667,604.667,119.189,604.667,113.667C604.667,108.144,609.144,103.667,614.667,103.667ZZM615.669,112.667L613.669,112.667L613.669,118.667L615.669,118.667L615.669,112.667ZZM614.677,108.417C613.948,108.417,613.419,108.943,613.419,109.653C613.419,110.392,613.934,110.917,614.677,110.917C615.391,110.917,615.919,110.392,615.919,109.667C615.919,108.943,615.391,108.417,614.677,108.417ZZ">
      </path>
    </g>
  </g>
</svg>