<!-- Shape: svg-path -->
<svg xmlns:xlink="http://www.w3.org/1999/xlink" fill="none" width="20" xmlns="http://www.w3.org/2000/svg" style="-webkit-print-color-adjust:exact" id="screenshot-26a16982-5cfb-80e2-8004-24bf8a236cdd" version="1.1" viewBox="832.094 38.094 20 20" height="20">
  <g id="shape-26a16982-5cfb-80e2-8004-24bf8a236cdd">
    <g class="fills" id="fills-26a16982-5cfb-80e2-8004-24bf8a236cdd">
      <path rx="0" ry="0" style="fill:#ffffff" d="M842.094,58.094C847.554,58.094,852.094,53.564,852.094,48.094C852.094,42.633,847.545,38.094,842.084,38.094C836.613,38.094,832.094,42.633,832.094,48.094C832.094,53.564,836.623,58.094,842.094,58.094ZZM839.270,53.564C838.192,53.564,837.643,53.015,837.643,51.907L837.643,43.907C837.643,42.809,838.192,42.251,839.270,42.251L841.633,42.251L841.633,46.202C841.633,46.878,841.956,47.192,842.633,47.192L846.515,47.192L846.515,51.907C846.515,53.005,845.976,53.564,844.888,53.564ZM842.711,46.398C842.525,46.398,842.427,46.300,842.427,46.113L842.427,42.309C842.643,42.339,842.868,42.496,843.113,42.751L846.015,45.711C846.270,45.966,846.427,46.182,846.456,46.398Z">
      </path>
    </g>
  </g>
</svg>