<!-- Shape: svg-path -->
<svg xmlns:xlink="http://www.w3.org/1999/xlink" fill="none" width="20.003" xmlns="http://www.w3.org/2000/svg" style="-webkit-print-color-adjust:exact" id="screenshot-e8b9a58d-252f-8003-8004-24be498f40bb" version="1.1" viewBox="896.667 153.667 20.003 20" height="20">
  <g id="shape-e8b9a58d-252f-8003-8004-24be498f40bb">
    <g class="fills" id="fills-e8b9a58d-252f-8003-8004-24be498f40bb">
      <path fill-rule="evenodd" clip-rule="evenodd" rx="0" ry="0" style="fill:#ffffff" d="M916.670,163.667C916.670,169.189,912.192,173.667,906.668,173.667C901.145,173.667,896.667,169.189,896.667,163.667C896.667,158.144,901.145,153.667,906.668,153.667C912.192,153.667,916.670,158.144,916.670,163.667ZZM901.673,160.667C901.673,160.117,902.118,159.667,902.668,159.667L910.669,159.667C911.219,159.667,911.669,160.117,911.669,160.667L911.669,166.667C911.669,167.217,911.219,167.667,910.669,167.667L902.668,167.667C902.118,167.667,901.668,167.217,901.668,166.667L901.673,160.667ZZM906.668,164.167L902.668,161.667L902.668,166.667L910.669,166.667L910.669,161.667L906.668,164.167ZZM906.668,163.167L902.668,160.667L910.669,160.667L906.668,163.167ZZ">
      </path>
    </g>
  </g>
</svg>