<!-- Shape: github-[#142] -->
<svg xmlns:xlink="http://www.w3.org/1999/xlink" fill="none" width="20" xmlns="http://www.w3.org/2000/svg" style="-webkit-print-color-adjust:exact" id="screenshot-26a16982-5cfb-80e2-8004-24c036f9a68c" version="1.1" viewBox="869 54 20 20" height="20">
  <g id="shape-26a16982-5cfb-80e2-8004-24c036f9a68c">
    <g class="fills" id="fills-26a16982-5cfb-80e2-8004-24c036f9a68c">
      <path fill-rule="evenodd" rx="0" ry="0" style="fill:#ffffff" d="M879.000,54.000C884.523,54.000,889.000,58.590,889.000,64.253C889.000,68.782,886.138,72.624,882.167,73.981C881.660,74.082,881.480,73.762,881.480,73.489C881.480,73.151,881.492,72.047,881.492,70.675C881.492,69.719,881.172,69.095,880.813,68.777C883.040,68.523,885.380,67.656,885.380,63.718C885.380,62.598,884.992,61.684,884.350,60.966C884.454,60.707,884.797,59.664,884.252,58.252C884.252,58.252,883.414,57.977,881.505,59.303C880.706,59.076,879.850,58.962,879.000,58.958C878.150,58.962,877.295,59.076,876.497,59.303C874.586,57.977,873.746,58.252,873.746,58.252C873.203,59.664,873.546,60.707,873.649,60.966C873.010,61.684,872.619,62.598,872.619,63.718C872.619,67.646,874.954,68.526,877.175,68.785C876.889,69.041,876.630,69.493,876.540,70.156C875.970,70.418,874.522,70.871,873.630,69.304C873.630,69.304,873.101,68.319,872.097,68.247C872.097,68.247,871.122,68.234,872.029,68.870C872.029,68.870,872.684,69.185,873.139,70.370C873.139,70.370,873.726,72.200,876.508,71.580C876.513,72.437,876.522,73.245,876.522,73.489C876.522,73.760,876.338,74.077,875.839,73.982C871.865,72.627,869.000,68.783,869.000,64.253C869.000,58.590,873.478,54.000,879.000,54.000Z">
      </path>
    </g>
  </g>
</svg>