<!-- Shape: svg-path -->
<svg xmlns:xlink="http://www.w3.org/1999/xlink" fill="none" width="20" xmlns="http://www.w3.org/2000/svg" style="-webkit-print-color-adjust:exact" id="screenshot-6fdd36ec-73e9-8049-8004-24bcfc53f4a6" version="1.1" viewBox="789 305 20 20" height="20">
  <g id="shape-6fdd36ec-73e9-8049-8004-24bcfc53f4a6">
    <g class="fills" id="fills-6fdd36ec-73e9-8049-8004-24bcfc53f4a6">
      <path rx="0" ry="0" style="fill:#ffffff" d="M799.000,305.000C793.477,305.000,789.000,309.477,789.000,315.000C789.000,320.523,793.477,325.000,799.000,325.000C804.523,325.000,809.000,320.523,809.000,315.000C809.000,309.477,804.523,305.000,799.000,305.000ZZM796.552,319.145L794.527,319.145L794.527,312.628L796.552,312.628L796.552,319.145ZZM795.527,311.828C794.887,311.828,794.474,311.375,794.474,310.815C794.474,310.243,794.900,309.803,795.553,309.803C796.206,309.803,796.606,310.243,796.619,310.815C796.619,311.375,796.206,311.828,795.527,311.828ZZM803.948,319.145L801.923,319.145L801.923,315.533C801.923,314.693,801.629,314.122,800.897,314.122C800.338,314.122,800.005,314.508,799.858,314.880C799.804,315.012,799.791,315.200,799.791,315.386L799.791,319.144L797.765,319.144L797.765,314.706C797.765,313.893,797.739,313.212,797.711,312.627L799.471,312.627L799.564,313.532L799.604,313.532C799.871,313.107,800.524,312.480,801.617,312.480C802.949,312.480,803.948,313.373,803.948,315.292L803.948,319.145ZZ">
      </path>
    </g>
  </g>
</svg>